<svg width="55" height="28" viewBox="0 0 54.52 28" fill="none" xmlns="http://www.w3.org/2000/svg">
<rect x="0.5" y="0.5" width="53.52" height="27" rx="7.34" fill="white" stroke="#E7EAF0"/>
<path d="M 13.59 19 V 12.008 H 16.17 L 18.6 16.575 H 17.58 L 20.26 12.008 H 22.56 L 22.58 19 H 20.37 V 14.433 L 20.75 14.691 L 18.58 18.381 H 17.53 L 15.37 14.511 L 15.79 14.395 V 19 H 13.59 Z M 23.95 19 V 12.008 H 26.39 V 15.672 L 29.32 12.008 H 31.57 V 19 H 29.12 V 15.323 L 26.22 19 H 23.95 Z M 37.34 19.116 C 36.75 19.116 36.24 18.987 35.82 18.729 C 35.4 18.462 35.08 18.067 34.85 17.542 C 34.64 17.009 34.53 16.33 34.53 15.504 C 34.53 14.67 34.63 13.99 34.84 13.466 C 35.05 12.933 35.35 12.537 35.77 12.279 C 36.19 12.021 36.71 11.892 37.34 11.892 C 37.98 11.892 38.55 12.043 39.07 12.344 C 39.59 12.636 40.01 13.053 40.31 13.595 C 40.62 14.128 40.77 14.764 40.77 15.504 C 40.77 16.244 40.62 16.884 40.31 17.426 C 40.01 17.968 39.59 18.385 39.07 18.678 C 38.55 18.97 37.98 19.116 37.34 19.116 Z M 32.94 21.503 V 12.008 H 35.28 V 13.195 L 35.26 15.504 L 35.39 17.826 V 21.503 H 32.94 Z M 36.83 17.168 C 37.1 17.168 37.35 17.104 37.56 16.975 C 37.78 16.846 37.96 16.656 38.09 16.407 C 38.23 16.158 38.3 15.857 38.3 15.504 C 38.3 15.151 38.23 14.85 38.09 14.601 C 37.96 14.352 37.78 14.163 37.56 14.033 C 37.35 13.905 37.1 13.84 36.83 13.84 C 36.55 13.84 36.3 13.905 36.08 14.033 C 35.86 14.163 35.69 14.352 35.55 14.601 C 35.42 14.85 35.35 15.151 35.35 15.504 C 35.35 15.857 35.42 16.158 35.55 16.407 C 35.69 16.656 35.86 16.846 36.08 16.975 C 36.3 17.104 36.55 17.168 36.83 17.168 Z" fill="#0F9D58"/>
</svg>
